<?xml version="1.0" encoding="iso-8859-1"?>
<!-- Generator: Adobe Illustrator 19.0.0, SVG Export Plug-In . SVG Version: 6.00 Build 0)  -->
<svg version="1.1" id="Layer_1" xmlns="http://www.w3.org/2000/svg" xmlns:xlink="http://www.w3.org/1999/xlink" x="0px" y="0px"
	 viewBox="0 0 504.123 504.123" style="enable-background:new 0 0 504.123 504.123;" xml:space="preserve">
<path style="fill:#E4E7E7;" d="M504.123,382.03v7.877c0,12.997-10.634,23.631-23.631,23.631H23.631
	C10.634,413.537,0,402.904,0,389.907v-7.877L504.123,382.03L504.123,382.03z"/>
<path style="fill:#C8CBCB;" d="M216.615,374.153h70.892c6.695,0,11.815,5.12,11.815,11.815s-5.12,11.815-11.815,11.815h-70.892
	c-6.695,0-11.815-5.12-11.815-11.815C204.8,379.667,209.92,374.153,216.615,374.153z"/>
<path style="fill:#36434F;" d="M63.015,90.584h378.092c8.665,0,15.754,7.089,15.754,15.754V382.03h-409.6V106.337
	C47.262,97.673,54.351,90.584,63.015,90.584z"/>
<path style="fill:#465765;" d="M70.892,114.214H433.23v244.185H70.892V114.214z"/>
<path style="fill:#7E8A94;" d="M157.538,326.891h189.046c12.997,0,23.631,10.634,23.631,23.631v7.877H133.908v-7.877
	C133.908,337.525,144.542,326.891,157.538,326.891z"/>
<path style="fill:#E4E7E7;" d="M181.169,311.137c8.665,0,15.754,7.089,15.754,15.754s-7.089,15.754-15.754,15.754
	s-15.754-7.089-15.754-15.754S172.505,311.137,181.169,311.137z"/>
<path style="fill:#EFC75E;" d="M228.431,311.137c8.665,0,15.754,7.089,15.754,15.754s-7.089,15.754-15.754,15.754
	s-15.754-7.089-15.754-15.754S219.766,311.137,228.431,311.137z"/>
<path style="fill:#E4E7E7;" d="M275.692,311.137c8.665,0,15.754,7.089,15.754,15.754s-7.089,15.754-15.754,15.754
	s-15.754-7.089-15.754-15.754S267.028,311.137,275.692,311.137z M322.954,311.137c8.665,0,15.754,7.089,15.754,15.754
	s-7.089,15.754-15.754,15.754s-15.754-7.089-15.754-15.754S314.289,311.137,322.954,311.137z"/>
<g>
</g>
<g>
</g>
<g>
</g>
<g>
</g>
<g>
</g>
<g>
</g>
<g>
</g>
<g>
</g>
<g>
</g>
<g>
</g>
<g>
</g>
<g>
</g>
<g>
</g>
<g>
</g>
<g>
</g>
</svg>
