<svg xmlns="http://www.w3.org/2000/svg" viewBox="0 0 504.123 504.123"><path d="M504.123 382.03v7.877c0 12.997-10.634 23.631-23.631 23.631H23.631C10.634 413.537 0 402.904 0 389.907v-7.877h504.123z" fill="#e4e7e7"/><path d="M216.615 374.153h70.892c6.695 0 11.815 5.12 11.815 11.815s-5.12 11.815-11.815 11.815h-70.892c-6.695 0-11.815-5.12-11.815-11.815 0-6.301 5.12-11.815 11.815-11.815z" fill="#c8cbcb"/><path d="M63.015 90.584h378.092c8.665 0 15.754 7.089 15.754 15.754V382.03h-409.6V106.337c.001-8.664 7.09-15.753 15.754-15.753z" fill="#36434f"/><path d="M70.892 114.214H433.23v244.185H70.892V114.214z" fill="#465765"/><path d="M157.538 326.891h189.046c12.997 0 23.631 10.634 23.631 23.631v7.877H133.908v-7.877c0-12.997 10.634-23.631 23.63-23.631z" fill="#7e8a94"/><path d="M181.169 311.137c8.665 0 15.754 7.089 15.754 15.754s-7.089 15.754-15.754 15.754-15.754-7.089-15.754-15.754 7.09-15.754 15.754-15.754z" fill="#e4e7e7"/><path d="M228.431 311.137c8.665 0 15.754 7.089 15.754 15.754s-7.089 15.754-15.754 15.754-15.754-7.089-15.754-15.754 7.089-15.754 15.754-15.754z" fill="#efc75e"/><path d="M275.692 311.137c8.665 0 15.754 7.089 15.754 15.754s-7.089 15.754-15.754 15.754-15.754-7.089-15.754-15.754 7.09-15.754 15.754-15.754zm47.262 0c8.665 0 15.754 7.089 15.754 15.754s-7.089 15.754-15.754 15.754-15.754-7.089-15.754-15.754 7.089-15.754 15.754-15.754z" fill="#e4e7e7"/></svg>