<?xml version="1.0" encoding="iso-8859-1"?>
<!-- Generator: Adobe Illustrator 18.0.0, SVG Export Plug-In . SVG Version: 6.00 Build 0)  -->
<!DOCTYPE svg PUBLIC "-//W3C//DTD SVG 1.1//EN" "http://www.w3.org/Graphics/SVG/1.1/DTD/svg11.dtd">
<svg version="1.1" id="Capa_1" xmlns="http://www.w3.org/2000/svg" xmlns:xlink="http://www.w3.org/1999/xlink" x="0px" y="0px"
	 viewBox="0 0 455.731 455.731" style="enable-background:new 0 0 455.731 455.731;" xml:space="preserve">
<g>
	<rect x="0" y="0" style="fill:#F88400;" width="455.731" height="455.731"/>
	<g>
		<path style="fill:#FFFFFF;" d="M227.866,123.07c-36.435,0-69.515,14.621-93.698,38.296V79.78c0-11.135-9.027-20.163-20.163-20.163
			S93.842,68.644,93.842,79.78v177.314c0,73.901,60.122,134.023,134.023,134.023s134.023-60.122,134.023-134.023
			S301.766,123.07,227.866,123.07z M227.866,350.791c-51.665,0-93.698-42.033-93.698-93.698s42.033-93.698,93.698-93.698
			s93.698,42.033,93.698,93.698S279.53,350.791,227.866,350.791z"/>
		<circle style="fill:#FFFFFF;" cx="178.645" cy="256.501" r="26.686"/>
	</g>
</g>
<g>
</g>
<g>
</g>
<g>
</g>
<g>
</g>
<g>
</g>
<g>
</g>
<g>
</g>
<g>
</g>
<g>
</g>
<g>
</g>
<g>
</g>
<g>
</g>
<g>
</g>
<g>
</g>
<g>
</g>
</svg>
