<?xml version="1.0" encoding="iso-8859-1"?>
<!-- Generator: Adobe Illustrator 18.0.0, SVG Export Plug-In . SVG Version: 6.00 Build 0)  -->
<!DOCTYPE svg PUBLIC "-//W3C//DTD SVG 1.1//EN" "http://www.w3.org/Graphics/SVG/1.1/DTD/svg11.dtd">
<svg version="1.1" id="Capa_1" xmlns="http://www.w3.org/2000/svg" xmlns:xlink="http://www.w3.org/1999/xlink" x="0px" y="0px"
	 viewBox="0 0 455.731 455.731" style="enable-background:new 0 0 455.731 455.731;" xml:space="preserve">
<g>
	<rect x="0" y="0" style="fill:#2F4F6E;" width="455.731" height="455.731"/>
	<path style="fill:#FFFFFF;" d="M336.473,330.067v55.802c-0.103,0.043-0.214,0.086-0.317,0.129
		c-6.631,3.105-13.374,5.953-20.228,8.544c-16.307,6.159-33.172,9.591-50.586,10.337c-1.536,0.06-3.071,0.163-4.615,0.24
		c-3.371,0-10.56-0.086-10.791-0.094c-5.379-0.146-10.731-0.566-16.067-1.27c-8.758-1.167-17.311-3.165-25.598-6.271
		c-13.168-4.915-24.774-12.198-34.399-22.527c-7.463-8.012-12.464-17.242-14.437-28.085c-1.501-8.278-2.093-16.616-2.093-25.006
		c-0.034-41.613-0.017-84.179-0.017-125.792h-38.066v-50.749c4.212-1.664,8.445-3.122,12.554-5.027
		c21.729-10.097,37.624-26.095,47.712-47.815c4.933-10.637,7.703-21.926,9.608-33.455c0.463-2.797,0.832-5.61,1.244-8.415h50.269
		l0.017,89.806h84.102v55.656h-84.144c0,0,0.051,99.011,0.129,102.313c0.18,7.523,0.54,15.029,1.69,22.484
		c1.244,8.012,5.25,14.223,12.001,18.666c6.614,4.349,13.914,6.837,21.772,7.678c7.815,0.841,15.57,0.249,23.264-1.304
		C312.908,343.209,325.09,337.565,336.473,330.067z"/>
</g>
<g>
</g>
<g>
</g>
<g>
</g>
<g>
</g>
<g>
</g>
<g>
</g>
<g>
</g>
<g>
</g>
<g>
</g>
<g>
</g>
<g>
</g>
<g>
</g>
<g>
</g>
<g>
</g>
<g>
</g>
</svg>
