<?xml version="1.0" encoding="iso-8859-1"?>
<!-- Generator: Adobe Illustrator 18.0.0, SVG Export Plug-In . SVG Version: 6.00 Build 0)  -->
<!DOCTYPE svg PUBLIC "-//W3C//DTD SVG 1.1//EN" "http://www.w3.org/Graphics/SVG/1.1/DTD/svg11.dtd">
<svg version="1.1" id="Capa_1" xmlns="http://www.w3.org/2000/svg" xmlns:xlink="http://www.w3.org/1999/xlink" x="0px" y="0px"
	 viewBox="0 0 455.731 455.731" style="enable-background:new 0 0 455.731 455.731;" xml:space="preserve">
<g>
	<rect x="0" y="0" style="fill:#ED4989;" width="455.731" height="455.731"/>
	<path style="fill:#FFFFFF;" d="M227.866,55.375c-95.27,0-172.491,77.23-172.491,172.491s77.221,172.491,172.491,172.491
		c95.261,0,172.491-77.23,172.491-172.491S323.127,55.375,227.866,55.375z M373.376,225.952
		c-19.721-5.696-40.564-8.751-62.118-8.751c-13.018,0-25.776,1.114-38.184,3.252c-4.025-9.604-8.194-18.795-12.407-27.537
		c58.92-25.201,80.356-56.53,80.356-56.53l0.009-0.009C360.888,160.905,372.936,192.027,373.376,225.952z M227.866,82.346
		c37.034,0,70.851,13.836,96.537,36.629l-0.009,0.009c-19.622,22.614-46.8,38.741-75.819,50.232
		c-28.004-51.993-54.589-82.899-54.589-82.899C204.857,83.72,216.204,82.346,227.866,82.346z M164.849,96.658
		c0,0,25.444,32.64,53.098,82.935c-66.601,19.146-132.475,18.13-132.475,18.13h-0.009C94.87,153.062,124.761,115.947,164.849,96.658
		z M82.337,227.866c0-1.276,0.018-2.543,0.045-3.809h0.009c62.235,0.332,110.903-8.212,148.386-20.089
		c3.872,7.736,7.736,15.777,11.509,24.078c-51.588,16.72-94.956,51.687-122.484,97.292
		C96.514,299.534,82.337,265.357,82.337,227.866z M227.866,373.385c-33.17,0-63.735-11.096-88.218-29.774
		c24.491-43.197,64.822-76.232,113.086-91.209c13.8,34.114,25.309,71.57,30.789,109.951
		C266.382,369.468,247.577,373.385,227.866,373.385z M308.698,348.885c-5.049-37.357-14.447-72.1-25.785-103.293
		c9.254-1.339,18.723-2.03,28.346-2.03c20.916,0,41.068,3.252,59.98,9.299C364.329,292.823,341.114,327.197,308.698,348.885z"/>
</g>
<g>
</g>
<g>
</g>
<g>
</g>
<g>
</g>
<g>
</g>
<g>
</g>
<g>
</g>
<g>
</g>
<g>
</g>
<g>
</g>
<g>
</g>
<g>
</g>
<g>
</g>
<g>
</g>
<g>
</g>
</svg>
