<?xml version="1.0" encoding="iso-8859-1"?>
<!-- Generator: Adobe Illustrator 18.0.0, SVG Export Plug-In . SVG Version: 6.00 Build 0)  -->
<!DOCTYPE svg PUBLIC "-//W3C//DTD SVG 1.1//EN" "http://www.w3.org/Graphics/SVG/1.1/DTD/svg11.dtd">
<svg version="1.1" id="Capa_1" xmlns="http://www.w3.org/2000/svg" xmlns:xlink="http://www.w3.org/1999/xlink" x="0px" y="0px"
	 viewBox="0 0 455.731 455.731" style="enable-background:new 0 0 455.731 455.731;" xml:space="preserve">
<rect x="0" y="0" style="fill:#507FA7;" width="455.731" height="455.731"/>
<g>
	<path style="fill:#FFFFFF;" d="M312.068,187.449L312.068,187.449c-21.123,0-40.029,9.44-52.77,24.317
		c-8.816-20.391-29.103-34.665-52.732-34.665h0c-18.311,0-34.608,8.58-45.124,21.927c-5.377-18.535-22.469-32.09-42.738-32.09h0
		c-24.581,0-44.507,19.927-44.507,44.507v74.178h74.939v44.626h93.467v42.44h138.931V256.915
		C381.534,218.55,350.433,187.449,312.068,187.449z"/>
	<circle style="fill:#FFFFFF;" cx="312.489" cy="131.877" r="48.836"/>
	<circle style="fill:#FFFFFF;" cx="206.915" cy="131.157" r="40.376"/>
	<circle style="fill:#FFFFFF;" cx="118.974" cy="131.333" r="31.29"/>
</g>
<g>
</g>
<g>
</g>
<g>
</g>
<g>
</g>
<g>
</g>
<g>
</g>
<g>
</g>
<g>
</g>
<g>
</g>
<g>
</g>
<g>
</g>
<g>
</g>
<g>
</g>
<g>
</g>
<g>
</g>
</svg>
