<?xml version="1.0" encoding="iso-8859-1"?>
<!-- Generator: Adobe Illustrator 18.0.0, SVG Export Plug-In . SVG Version: 6.00 Build 0)  -->
<!DOCTYPE svg PUBLIC "-//W3C//DTD SVG 1.1//EN" "http://www.w3.org/Graphics/SVG/1.1/DTD/svg11.dtd">
<svg version="1.1" id="Capa_1" xmlns="http://www.w3.org/2000/svg" xmlns:xlink="http://www.w3.org/1999/xlink" x="0px" y="0px"
	 viewBox="0 0 455.731 455.731" style="enable-background:new 0 0 455.731 455.731;" xml:space="preserve">
<g>
	<rect x="0" y="0" style="fill:#EA4640;" width="455.731" height="455.731"/>
	<g>
		<path style="fill:#FFFFFF;" d="M230.308,177.436c14.57,0,26.99,11.93,26.75,26.5c-0.24,14.17-11.84,25.62-26.06,25.62h-32.32
			v-22.38c0-16.43,13.31-29.74,29.74-29.74H230.308z"/>
		<path style="fill:#FFFFFF;" d="M238.878,83.616c72.06,0,130.27,57.76,124.65,129.59c-4.77,61.09-54.5,103.64-116.9,106.01
			c-6.25,33.35-41.72,52.9-74.53,52.9c-44.26,0-80.27-33.66-80.27-77.92v-83.16c0-72.1,58.45-127.42,130.54-127.42H238.878z
			 M312.308,203.496c0-19.72-7.99-37.57-20.92-50.5c-12.92-12.92-30.77-20.91-50.49-20.91h-19.03c-43.32,0-78.44,35.12-78.44,78.45
			v83.66c0,15.83,12.84,28.66,28.67,28.66c7.91,0,15.08-3.21,20.27-8.39c5.19-5.19,8.4-12.35,8.4-20.27v-19.29h40.13
			C280.338,274.906,312.308,242.936,312.308,203.496z"/>
	</g>
</g>
<g>
</g>
<g>
</g>
<g>
</g>
<g>
</g>
<g>
</g>
<g>
</g>
<g>
</g>
<g>
</g>
<g>
</g>
<g>
</g>
<g>
</g>
<g>
</g>
<g>
</g>
<g>
</g>
<g>
</g>
</svg>
