<svg xmlns="http://www.w3.org/2000/svg" viewBox="0 0 455.731 455.731"><path fill="#f88400" d="M0 0h455.731v455.731H0z"/><g fill="#fff"><path d="M227.866 123.07c-36.435 0-69.515 14.621-93.698 38.296V79.78c0-11.135-9.027-20.163-20.163-20.163S93.842 68.644 93.842 79.78v177.314c0 73.901 60.122 134.023 134.023 134.023s134.023-60.122 134.023-134.023S301.766 123.07 227.866 123.07zm0 227.721c-51.665 0-93.698-42.033-93.698-93.698s42.033-93.698 93.698-93.698 93.698 42.033 93.698 93.698-42.034 93.698-93.698 93.698z"/><circle cx="178.645" cy="256.501" r="26.686"/></g></svg>