<svg xmlns="http://www.w3.org/2000/svg" viewBox="0 0 455.731 455.731"><path fill="#cd0300" d="M0 0h455.731v455.731H0z"/><path d="M240.894 357.724h-18.027c-58.383 0-105.882-47.499-105.882-105.882V119.884c0-12.082 9.795-21.877 21.877-21.877 12.082 0 21.877 9.795 21.877 21.877v131.958c0 34.257 27.871 62.127 62.127 62.127h18.027c34.257 0 62.127-27.871 62.127-62.127 0-34.258-27.87-62.128-62.127-62.128h-12.776c-12.082 0-21.877-9.794-21.877-21.877s9.795-21.877 21.877-21.877h12.776c58.383 0 105.882 47.499 105.882 105.883.001 58.382-47.498 105.881-105.881 105.881z" fill="#fff"/></svg>