<svg xmlns="http://www.w3.org/2000/svg" viewBox="0 0 455.731 455.731"><path fill="#0071b9" d="M0 0h455.731v455.731H0z"/><path d="M280.887 131.1h88.812v22.092h-88.812zm124.16 124.16c0 3.985-.159 7.821-.477 11.488H290.343c-1.06 25.185 17.32 40.173 38.22 40.173 14.811 0 27.828-7.856 35.33-21.173h37.389c-10.26 37.442-40.403 53.022-75.989 53.022-46.615 0-79.754-37.389-79.754-83.509s35.71-83.509 79.754-83.509 79.754 37.388 79.754 83.508zm-114.704-16.392h70.254c-2.792-20.749-17.453-33.978-35.127-33.978-17.674-.001-32.335 13.228-35.127 33.978zm-58.501 19.927c2.872 32.034-2.872 51.917-35.569 68.045-12.239 6.036-27.58 7.927-41.976 7.927H50.684V116.962h113.997c14.139 0 57.811 8.395 58.059 50.371.168 29.021-16.26 42.285-29.984 48.639 0-.001 36.214 10.789 39.086 42.823zm-46.668 9.217c0-30.567-34.517-29.772-34.517-29.772H98.625v59.543h52.032c0 .001 34.517.796 34.517-29.771zm-8.563-88.529c0-25.627-28.941-24.964-28.941-24.964H98.625v49.929h49.045s28.941.662 28.941-24.965z" fill="#fff"/></svg>