<svg xmlns="http://www.w3.org/2000/svg" viewBox="0 0 455.731 455.731"><path fill="#f89029" d="M0 0h455.731v455.731H0z"/><path d="M349.922 190.236H335.85c-11.015 0-19.944-8.929-19.944-19.944v-1.389c0-46.252-37.495-83.747-83.747-83.747h-62.547c-46.252 0-83.747 37.495-83.747 83.747V286.83c0 46.252 37.495 83.747 83.747 83.747h116.507c46.252 0 83.747-37.495 83.747-83.747v-76.649c0-11.016-8.93-19.945-19.944-19.945zm-176.726-32.66h66.74c9.019 0 16.33 7.311 16.33 16.33s-7.311 16.33-16.33 16.33h-66.74c-9.019 0-16.33-7.311-16.33-16.33s7.311-16.33 16.33-16.33zm110.76 140.58h-110.76c-9.019 0-16.33-7.311-16.33-16.33 0-9.019 7.311-16.33 16.33-16.33h110.76c9.019 0 16.33 7.311 16.33 16.33 0 9.018-7.312 16.33-16.33 16.33z" fill="#fff"/></svg>