<?xml version="1.0" encoding="iso-8859-1"?>
<!-- Generator: Adobe Illustrator 18.0.0, SVG Export Plug-In . SVG Version: 6.00 Build 0)  -->
<!DOCTYPE svg PUBLIC "-//W3C//DTD SVG 1.1//EN" "http://www.w3.org/Graphics/SVG/1.1/DTD/svg11.dtd">
<svg version="1.1" id="Capa_1" xmlns="http://www.w3.org/2000/svg" xmlns:xlink="http://www.w3.org/1999/xlink" x="0px" y="0px"
	 viewBox="0 0 455.731 455.731" style="enable-background:new 0 0 455.731 455.731;" xml:space="preserve">
<g>
	<rect x="0" y="0" style="fill:#466CA3;" width="455.731" height="455.731"/>
	<g>
		<rect x="152.366" y="170.116" style="fill:#FFFFFF;" width="39" height="115.5"/>
		<rect x="152.366" y="121.116" style="fill:#FFFFFF;" width="39" height="34.5"/>
		<path style="fill:#FFFFFF;" d="M96.366,121.116v49h-56v115.5h95v-164.5H96.366z M79.366,251.616v-47.5h17v47.5H79.366z"/>
		<path style="fill:#FFFFFF;" d="M208.366,170.116v115.5h56v15.096h-56v33.904h95v-164.5H208.366z M247.366,251.616v-47.5h17v47.5
			H247.366z"/>
		<path style="fill:#FFFFFF;" d="M320.366,170.116v115.5h56v15.096h-56v33.904h95v-164.5H320.366z M359.366,251.616v-47.5h17v47.5
			H359.366z"/>
	</g>
</g>
<g>
</g>
<g>
</g>
<g>
</g>
<g>
</g>
<g>
</g>
<g>
</g>
<g>
</g>
<g>
</g>
<g>
</g>
<g>
</g>
<g>
</g>
<g>
</g>
<g>
</g>
<g>
</g>
<g>
</g>
</svg>
