<?xml version="1.0" encoding="iso-8859-1"?>
<!-- Generator: Adobe Illustrator 18.0.0, SVG Export Plug-In . SVG Version: 6.00 Build 0)  -->
<!DOCTYPE svg PUBLIC "-//W3C//DTD SVG 1.1//EN" "http://www.w3.org/Graphics/SVG/1.1/DTD/svg11.dtd">
<svg version="1.1" id="Capa_1" xmlns="http://www.w3.org/2000/svg" xmlns:xlink="http://www.w3.org/1999/xlink" x="0px" y="0px"
	 viewBox="0 0 455.731 455.731" style="enable-background:new 0 0 455.731 455.731;" xml:space="preserve">
<g>
	<rect x="0" y="0" style="fill:#229CFF;" width="455.731" height="455.731"/>
	<g>
		<path style="fill:#FFFFFF;" d="M234.131,184.302h-20.32v86.304h20.32c23.836,0,43.152-19.316,43.152-43.152
			C277.283,203.627,257.967,184.302,234.131,184.302z"/>
		<path style="fill:#FFFFFF;" d="M234.532,59.376c-93.053,0-168.49,75.437-168.49,168.49c0,24.841,5.379,48.413,15.023,69.647
			l-28.357,67.619l73.546-8.174c29.289,24.585,67.053,39.399,108.278,39.399c93.054,0,168.49-75.437,168.49-168.49
			C403.022,134.812,327.586,59.376,234.532,59.376z M239.693,313.074h-73.29v-171.23h73.29c23.635,0,45.043,9.58,60.532,25.078
			c15.498,15.489,25.079,36.887,25.079,60.532C325.303,274.744,286.973,313.074,239.693,313.074z"/>
	</g>
</g>
<g>
</g>
<g>
</g>
<g>
</g>
<g>
</g>
<g>
</g>
<g>
</g>
<g>
</g>
<g>
</g>
<g>
</g>
<g>
</g>
<g>
</g>
<g>
</g>
<g>
</g>
<g>
</g>
<g>
</g>
</svg>
