<svg xmlns="http://www.w3.org/2000/svg" viewBox="0 0 455.731 455.731"><path fill="#229cff" d="M0 0h455.731v455.731H0z"/><g fill="#fff"><path d="M234.131 184.302h-20.32v86.304h20.32c23.836 0 43.152-19.316 43.152-43.152 0-23.827-19.316-43.152-43.152-43.152z"/><path d="M234.532 59.376c-93.053 0-168.49 75.437-168.49 168.49 0 24.841 5.379 48.413 15.023 69.647l-28.357 67.619 73.546-8.174c29.289 24.585 67.053 39.399 108.278 39.399 93.054 0 168.49-75.437 168.49-168.49 0-93.055-75.436-168.491-168.49-168.491zm5.161 253.698h-73.29v-171.23h73.29c23.635 0 45.043 9.58 60.532 25.078 15.498 15.489 25.079 36.887 25.079 60.532-.001 47.29-38.331 85.62-85.611 85.62z"/></g></svg>