<svg xmlns="http://www.w3.org/2000/svg" viewBox="0 0 455.731 455.731"><path fill="#ed4989" d="M0 0h455.731v455.731H0z"/><path d="M227.866 55.375c-95.27 0-172.491 77.23-172.491 172.491s77.221 172.491 172.491 172.491c95.261 0 172.491-77.23 172.491-172.491S323.127 55.375 227.866 55.375zm145.51 170.577c-19.721-5.696-40.564-8.751-62.118-8.751a224.738 224.738 0 0 0-38.184 3.252 578.551 578.551 0 0 0-12.407-27.537c58.92-25.201 80.356-56.53 80.356-56.53l.009-.009c19.856 24.528 31.904 55.65 32.344 89.575zM227.866 82.346c37.034 0 70.851 13.836 96.537 36.629l-.009.009c-19.622 22.614-46.8 38.741-75.819 50.232-28.004-51.993-54.589-82.899-54.589-82.899a145.678 145.678 0 0 1 33.88-3.971zm-63.017 14.312s25.444 32.64 53.098 82.935c-66.601 19.146-132.475 18.13-132.475 18.13h-.009c9.407-44.661 39.298-81.776 79.386-101.065zM82.337 227.866c0-1.276.018-2.543.045-3.809h.009c62.235.332 110.903-8.212 148.386-20.089a712.903 712.903 0 0 1 11.509 24.078c-51.588 16.72-94.956 51.687-122.484 97.292-23.288-25.804-37.465-59.981-37.465-97.472zm145.529 145.519c-33.17 0-63.735-11.096-88.218-29.774 24.491-43.197 64.822-76.232 113.086-91.209 13.8 34.114 25.309 71.57 30.789 109.951-17.141 7.115-35.946 11.032-55.657 11.032zm80.832-24.5c-5.049-37.357-14.447-72.1-25.785-103.293a197.909 197.909 0 0 1 28.346-2.03c20.916 0 41.068 3.252 59.98 9.299-6.91 39.962-30.125 74.336-62.541 96.024z" fill="#fff"/></svg>