<svg xmlns="http://www.w3.org/2000/svg" viewBox="0 0 455.73 455.73"><path d="M0 0v455.73h455.73V0H0zm265.67 247.037c-7.793 51.194-45.961 80.543-95.376 80.543-55.531 0-100.552-45.021-100.552-100.552 0-55.517 45.021-100.538 100.552-100.538 26.862 0 50.399 9.586 67.531 26.226l-28.857 28.857c-9.773-9.846-23.147-15.094-38.674-15.094-32.688 0-59.189 27.874-59.189 60.548 0 32.703 26.501 59.768 59.189 59.768 27.397 0 48.144-13.243 54.129-39.758h-54.129v-40.38h95.131c1.142 6.506 1.72 13.315 1.72 20.37-.001 6.998-.507 13.663-1.475 20.01zm120.749-12.52h-35.233v35.218H326.16v-35.218h-35.233v-25.041h35.233v-35.233h25.026v35.233h35.233v25.041z" fill="#dd4b39"/></svg>