<svg xmlns="http://www.w3.org/2000/svg" viewBox="0 0 455.73 455.73"><path d="M227.86 182.55c-24.98 0-45.32 20.33-45.32 45.31 0 24.99 20.34 45.33 45.32 45.33 24.99 0 45.32-20.34 45.32-45.33 0-24.98-20.33-45.31-45.32-45.31zm0 0c-24.98 0-45.32 20.33-45.32 45.31 0 24.99 20.34 45.33 45.32 45.33 24.99 0 45.32-20.34 45.32-45.33 0-24.98-20.33-45.31-45.32-45.31zm75.5-73.89H152.37c-24.1 0-43.71 19.61-43.71 43.71v150.99c0 24.1 19.61 43.71 43.71 43.71h150.99c24.1 0 43.71-19.61 43.71-43.71V152.37c0-24.1-19.61-43.71-43.71-43.71zm-75.5 197.69c-43.27 0-78.48-35.21-78.48-78.49 0-43.27 35.21-78.48 78.48-78.48 43.28 0 78.49 35.21 78.49 78.48 0 43.28-35.21 78.49-78.49 78.49zm81.01-140.74c-10.24 0-18.57-8.33-18.57-18.57s8.33-18.57 18.57-18.57 18.57 8.33 18.57 18.57-8.33 18.57-18.57 18.57zm-81.01 16.94c-24.98 0-45.32 20.33-45.32 45.31 0 24.99 20.34 45.33 45.32 45.33 24.99 0 45.32-20.34 45.32-45.33 0-24.98-20.33-45.31-45.32-45.31zm75.5-73.89H152.37c-24.1 0-43.71 19.61-43.71 43.71v150.99c0 24.1 19.61 43.71 43.71 43.71h150.99c24.1 0 43.71-19.61 43.71-43.71V152.37c0-24.1-19.61-43.71-43.71-43.71zm-75.5 197.69c-43.27 0-78.48-35.21-78.48-78.49 0-43.27 35.21-78.48 78.48-78.48 43.28 0 78.49 35.21 78.49 78.48 0 43.28-35.21 78.49-78.49 78.49zm81.01-140.74c-10.24 0-18.57-8.33-18.57-18.57s8.33-18.57 18.57-18.57 18.57 8.33 18.57 18.57-8.33 18.57-18.57 18.57zm-81.01 16.94c-24.98 0-45.32 20.33-45.32 45.31 0 24.99 20.34 45.33 45.32 45.33 24.99 0 45.32-20.34 45.32-45.33 0-24.98-20.33-45.31-45.32-45.31zM0 0v455.73h455.73V0H0zm380.23 303.36c0 42.39-34.48 76.87-76.87 76.87H152.37c-42.39 0-76.87-34.48-76.87-76.87V152.37c0-42.39 34.48-76.87 76.87-76.87h150.99c42.39 0 76.87 34.48 76.87 76.87v150.99zm-76.87-194.7H152.37c-24.1 0-43.71 19.61-43.71 43.71v150.99c0 24.1 19.61 43.71 43.71 43.71h150.99c24.1 0 43.71-19.61 43.71-43.71V152.37c0-24.1-19.61-43.71-43.71-43.71zm-75.5 197.69c-43.27 0-78.48-35.21-78.48-78.49 0-43.27 35.21-78.48 78.48-78.48 43.28 0 78.49 35.21 78.49 78.48 0 43.28-35.21 78.49-78.49 78.49zm81.01-140.74c-10.24 0-18.57-8.33-18.57-18.57s8.33-18.57 18.57-18.57 18.57 8.33 18.57 18.57-8.33 18.57-18.57 18.57zm-81.01 16.94c-24.98 0-45.32 20.33-45.32 45.31 0 24.99 20.34 45.33 45.32 45.33 24.99 0 45.32-20.34 45.32-45.33 0-24.98-20.33-45.31-45.32-45.31zm0 0c-24.98 0-45.32 20.33-45.32 45.31 0 24.99 20.34 45.33 45.32 45.33 24.99 0 45.32-20.34 45.32-45.33 0-24.98-20.33-45.31-45.32-45.31zm0 0c-24.98 0-45.32 20.33-45.32 45.31 0 24.99 20.34 45.33 45.32 45.33 24.99 0 45.32-20.34 45.32-45.33 0-24.98-20.33-45.31-45.32-45.31zm75.5-73.89H152.37c-24.1 0-43.71 19.61-43.71 43.71v150.99c0 24.1 19.61 43.71 43.71 43.71h150.99c24.1 0 43.71-19.61 43.71-43.71V152.37c0-24.1-19.61-43.71-43.71-43.71zm-75.5 197.69c-43.27 0-78.48-35.21-78.48-78.49 0-43.27 35.21-78.48 78.48-78.48 43.28 0 78.49 35.21 78.49 78.48 0 43.28-35.21 78.49-78.49 78.49zm81.01-140.74c-10.24 0-18.57-8.33-18.57-18.57s8.33-18.57 18.57-18.57 18.57 8.33 18.57 18.57-8.33 18.57-18.57 18.57zm-81.01 16.94c-24.98 0-45.32 20.33-45.32 45.31 0 24.99 20.34 45.33 45.32 45.33 24.99 0 45.32-20.34 45.32-45.33 0-24.98-20.33-45.31-45.32-45.31zm0 0c-24.98 0-45.32 20.33-45.32 45.31 0 24.99 20.34 45.33 45.32 45.33 24.99 0 45.32-20.34 45.32-45.33 0-24.98-20.33-45.31-45.32-45.31zm0 0c-24.98 0-45.32 20.33-45.32 45.31 0 24.99 20.34 45.33 45.32 45.33 24.99 0 45.32-20.34 45.32-45.33 0-24.98-20.33-45.31-45.32-45.31zm75.5-73.89H152.37c-24.1 0-43.71 19.61-43.71 43.71v150.99c0 24.1 19.61 43.71 43.71 43.71h150.99c24.1 0 43.71-19.61 43.71-43.71V152.37c0-24.1-19.61-43.71-43.71-43.71zm-75.5 197.69c-43.27 0-78.48-35.21-78.48-78.49 0-43.27 35.21-78.48 78.48-78.48 43.28 0 78.49 35.21 78.49 78.48 0 43.28-35.21 78.49-78.49 78.49zm81.01-140.74c-10.24 0-18.57-8.33-18.57-18.57s8.33-18.57 18.57-18.57 18.57 8.33 18.57 18.57-8.33 18.57-18.57 18.57zm-81.01 16.94c-24.98 0-45.32 20.33-45.32 45.31 0 24.99 20.34 45.33 45.32 45.33 24.99 0 45.32-20.34 45.32-45.33 0-24.98-20.33-45.31-45.32-45.31z" fill="#c536a4"/></svg>