<svg xmlns="http://www.w3.org/2000/svg" viewBox="0 0 455.731 455.731"><path fill="#00c200" d="M0 0h455.731v455.731H0z"/><path d="M393.272 219.605c.766-4.035 1.145-7.43 1.319-10.093.288-4.395-.04-10.92-.157-12.963-4.048-70.408-77.096-126.503-166.616-126.503-92.118 0-166.793 59.397-166.793 132.667 0 67.346 63.088 122.97 144.821 131.526 4.997.523 8.6 5.034 8.046 10.027l-3.48 31.322c-.79 7.11 6.562 12.283 13.005 9.173 69.054-33.326 110.346-67.611 135.004-97.314 4.487-5.405 19.118-25.904 22.101-31.288 6.332-11.43 10.697-23.704 12.75-36.554z" fill="#fff"/><path d="M136.103 229.588v-55.882a8.532 8.532 0 0 0-17.064 0v64.414a8.532 8.532 0 0 0 8.532 8.532h34.127a8.532 8.532 0 0 0 0-17.064h-25.595zm52.628 17.064h-3.73a6.667 6.667 0 0 1-6.667-6.667v-68.144a6.667 6.667 0 0 1 6.667-6.667h3.73a6.667 6.667 0 0 1 6.667 6.667v68.144a6.667 6.667 0 0 1-6.667 6.667zm68.947-72.946v39.351s-34.073-44.443-34.593-45.027a8.493 8.493 0 0 0-6.69-2.85c-4.641.176-8.2 4.232-8.2 8.876v64.063a8.532 8.532 0 0 0 17.064 0v-39.112s34.591 44.83 35.099 45.312a8.481 8.481 0 0 0 5.773 2.332c4.738.043 8.611-4.148 8.611-8.886v-64.059a8.533 8.533 0 0 0-17.064 0zm81.051 0a8.532 8.532 0 0 0-8.532-8.532H296.07a8.532 8.532 0 0 0-8.532 8.532v64.414a8.532 8.532 0 0 0 8.532 8.532h34.127a8.532 8.532 0 0 0 0-17.064h-25.595v-15.144h25.595a8.532 8.532 0 0 0 0-17.064h-25.595v-15.144h25.595a8.53 8.53 0 0 0 8.532-8.53z" fill="#00c500"/></svg>