<svg xmlns="http://www.w3.org/2000/svg" viewBox="0 0 455.731 455.731"><path fill="#ea4640" d="M0 0h455.731v455.731H0z"/><g fill="#fff"><path d="M230.308 177.436c14.57 0 26.99 11.93 26.75 26.5-.24 14.17-11.84 25.62-26.06 25.62h-32.32v-22.38c0-16.43 13.31-29.74 29.74-29.74h1.89z"/><path d="M238.878 83.616c72.06 0 130.27 57.76 124.65 129.59-4.77 61.09-54.5 103.64-116.9 106.01-6.25 33.35-41.72 52.9-74.53 52.9-44.26 0-80.27-33.66-80.27-77.92v-83.16c0-72.1 58.45-127.42 130.54-127.42h16.51zm73.43 119.88c0-19.72-7.99-37.57-20.92-50.5-12.92-12.92-30.77-20.91-50.49-20.91h-19.03c-43.32 0-78.44 35.12-78.44 78.45v83.66c0 15.83 12.84 28.66 28.67 28.66 7.91 0 15.08-3.21 20.27-8.39 5.19-5.19 8.4-12.35 8.4-20.27v-19.29h40.13c39.44 0 71.41-31.97 71.41-71.41z"/></g></svg>