<svg xmlns="http://www.w3.org/2000/svg" viewBox="0 0 455.731 455.731"><path fill="#15ace5" d="M0 0h455.731v455.731H0z"/><path d="M379.742 257.242a147.043 147.043 0 0 0 2.708-28.107c0-80.82-65.518-146.338-146.338-146.338-9.615 0-19.01.938-28.107 2.708a84.048 84.048 0 0 0-42.589-11.532c-46.65 0-84.467 37.817-84.467 84.467a84.051 84.051 0 0 0 11.532 42.588 147.043 147.043 0 0 0-2.708 28.107c0 80.82 65.518 146.338 146.338 146.338 9.615 0 19.01-.938 28.107-2.708a84.047 84.047 0 0 0 42.588 11.532c46.65 0 84.467-37.817 84.467-84.467a84.024 84.024 0 0 0-11.531-42.588zm-140.85 72.392c-52 0-78-19.5-86-44s9.5-31.5 15-32 17.167.833 20.5 11c3.465 10.567 15 31.5 40 34s41.5-9 46.5-21-4-28.5-42.5-34-78.5-22.5-78.5-61 44-54 86-54 63.293 23.721 68 33c5.833 11.5 3.833 30.661-10 34-14.5 3.5-22-4.5-32.5-24-10.858-20.165-49.5-15-62.5-3.5s-9.5 28 44.5 38.5 74 30 74 60.5-30.5 62.5-82.5 62.5z" fill="#fff"/></svg>