<svg xmlns="http://www.w3.org/2000/svg" viewBox="0 0 455.731 455.731"><path fill="#2f4f6e" d="M0 0h455.731v455.731H0z"/><path d="M336.473 330.067v55.802c-.103.043-.214.086-.317.129a286.977 286.977 0 0 1-20.228 8.544c-16.307 6.159-33.172 9.591-50.586 10.337-1.536.06-3.071.163-4.615.24-3.371 0-10.56-.086-10.791-.094a154.82 154.82 0 0 1-16.067-1.27c-8.758-1.167-17.311-3.165-25.598-6.271-13.168-4.915-24.774-12.198-34.399-22.527-7.463-8.012-12.464-17.242-14.437-28.085-1.501-8.278-2.093-16.616-2.093-25.006-.034-41.613-.017-84.179-.017-125.792h-38.066v-50.749c4.212-1.664 8.445-3.122 12.554-5.027 21.729-10.097 37.624-26.095 47.712-47.815 4.933-10.637 7.703-21.926 9.608-33.455.463-2.797.832-5.61 1.244-8.415h50.269l.017 89.806h84.102v55.656h-84.144s.051 99.011.129 102.313c.18 7.523.54 15.029 1.69 22.484 1.244 8.012 5.25 14.223 12.001 18.666 6.614 4.349 13.914 6.837 21.772 7.678 7.815.841 15.57.249 23.264-1.304 13.431-2.703 25.613-8.347 36.996-15.845z" fill="#fff"/></svg>