<svg xmlns="http://www.w3.org/2000/svg" viewBox="0 0 455.731 455.731"><path fill="#7d3daf" d="M0 0h455.731v455.731H0z"/><g fill="#fff"><path d="M371.996 146.901l-.09-.36c-7.28-29.43-40.1-61.01-70.24-67.58l-.34-.07c-48.75-9.3-98.18-9.3-146.92 0l-.35.07c-30.13 6.57-62.95 38.15-70.24 67.58l-.08.36c-9 41.1-9 82.78 0 123.88l.08.36c6.979 28.174 37.355 58.303 66.37 66.589v32.852c0 11.89 14.49 17.73 22.73 9.15l33.285-34.599c7.219.404 14.442.629 21.665.629 24.54 0 49.09-2.32 73.46-6.97l.34-.07c30.14-6.57 62.96-38.15 70.24-67.58l.09-.36c9-41.101 9-82.781 0-123.881zm-26.34 117.92c-4.86 19.2-29.78 43.07-49.58 47.48-25.921 4.929-52.047 7.036-78.147 6.313a1.851 1.851 0 0 0-1.38.559l-24.303 24.948-25.85 26.53c-1.89 1.97-5.21.63-5.21-2.09v-54.422c0-.899-.642-1.663-1.525-1.836l-.015-.003c-19.8-4.41-44.71-28.28-49.58-47.48-8.1-37.15-8.1-74.81 0-111.96 4.87-19.2 29.78-43.07 49.58-47.48 45.27-8.61 91.17-8.61 136.43 0 19.81 4.41 44.72 28.28 49.58 47.48 8.109 37.151 8.109 74.811 0 111.961z"/><path d="M270.937 289.942c-3.044-.924-5.945-1.545-8.639-2.663-27.916-11.582-53.608-26.524-73.959-49.429-11.573-13.025-20.631-27.73-28.288-43.292-3.631-7.38-6.691-15.049-9.81-22.668-2.844-6.948 1.345-14.126 5.756-19.361 4.139-4.913 9.465-8.673 15.233-11.444 4.502-2.163 8.943-.916 12.231 2.9 7.108 8.25 13.637 16.922 18.924 26.485 3.251 5.882 2.359 13.072-3.533 17.075-1.432.973-2.737 2.115-4.071 3.214-1.17.963-2.271 1.936-3.073 3.24-1.466 2.386-1.536 5.2-.592 7.794 7.266 19.968 19.513 35.495 39.611 43.858 3.216 1.338 6.446 2.896 10.151 2.464 6.205-.725 8.214-7.531 12.562-11.087 4.25-3.475 9.681-3.521 14.259-.624 4.579 2.898 9.018 6.009 13.43 9.153 4.331 3.086 8.643 6.105 12.638 9.623 3.841 3.383 5.164 7.821 3.001 12.412-3.96 8.408-9.722 15.403-18.034 19.868-2.347 1.259-5.15 1.667-7.797 2.482-3.044-.925 2.647-.815 0 0zm-42.995-158.471c36.515 1.023 66.506 25.256 72.933 61.356 1.095 6.151 1.485 12.44 1.972 18.683.205 2.626-1.282 5.121-4.116 5.155-2.927.035-4.244-2.414-4.434-5.039-.376-5.196-.637-10.415-1.353-15.568-3.78-27.201-25.47-49.705-52.545-54.534-4.074-.727-8.244-.918-12.371-1.351-2.609-.274-6.026-.432-6.604-3.675-.485-2.719 1.81-4.884 4.399-5.023.704-.039 1.412-.007 2.119-.004 36.515 1.023-.707-.003 0 0z"/><path d="M283.434 203.407c-.06.456-.092 1.528-.359 2.538-.969 3.666-6.527 4.125-7.807.425-.379-1.098-.436-2.347-.438-3.529-.013-7.734-1.694-15.46-5.594-22.189-4.009-6.916-10.134-12.73-17.318-16.248-4.344-2.127-9.042-3.449-13.803-4.237-2.081-.344-4.184-.553-6.275-.844-2.534-.352-3.887-1.967-3.767-4.464.112-2.34 1.822-4.023 4.372-3.879 8.38.476 16.474 2.287 23.924 6.232 15.15 8.023 23.804 20.687 26.33 37.597.114.766.298 1.525.356 2.294.143 1.899.233 3.8.379 6.304-.06.456-.146-2.504 0 0z"/><path d="M260.722 202.523c-3.055.055-4.69-1.636-5.005-4.437-.219-1.953-.392-3.932-.858-5.832-.918-3.742-2.907-7.21-6.055-9.503-1.486-1.083-3.17-1.872-4.934-2.381-2.241-.647-4.568-.469-6.804-1.017-2.428-.595-3.771-2.561-3.389-4.839.347-2.073 2.364-3.691 4.629-3.527 14.157 1.022 24.275 8.341 25.719 25.007.102 1.176.222 2.419-.039 3.544-.447 1.926-1.873 2.891-3.264 2.985-3.055.055 1.391-.094 0 0z"/></g></svg>