<svg xmlns="http://www.w3.org/2000/svg" viewBox="0 0 455.731 455.731"><path fill="#01b488" d="M0 0h455.731v455.731H0z"/><path d="M275.297 171.076c-1.142-9.132-6.849-50.796 22.83-50.796s13.127 66.206 13.127 66.206h49.596c3.356-11.18 5.766-24.85 5.766-41.094 0-53.65-38.24-72.485-65.065-72.485s-75.909 10.844-75.909 85.612 57.645 98.168 57.645 98.168c-15.41 34.245-54.792 76.48-54.792 76.48-71.914-81.046-81.616-214.029-81.616-214.029l-50.878 1.515c33.387 251.686 132.494 262.169 132.494 262.169 43.947-7.257 99.88-114.149 99.88-114.149 9.132 1.141 37.098-4.566 37.098-4.566v-37.098c-74.766 16.552-89.034-46.801-90.176-55.933z" fill="#fff"/></svg>