<svg xmlns="http://www.w3.org/2000/svg" viewBox="0 0 455.731 455.731"><path fill="#dc472e" d="M0 0h455.731v455.731H0z"/><path d="M263.259 291.734c-.01-1.7-.51-3.47-1.14-5.06-.84-2.09-2.64-3.13-4.9-3.35-2.65-.26-4.77.81-6.69 2.51-.77.67-1.12 1.67-1.12 1.67l.04 53.97v1.33s.46.62.53.7c1.56 1.69 3.38 3.03 5.71 3.51 3.84.79 6.55-.81 7.3-4.37.19-.89.3-1.81.3-2.72.02-16.07.05-32.13-.03-48.19zm0 0c-.01-1.7-.51-3.47-1.14-5.06-.84-2.09-2.64-3.13-4.9-3.35-2.65-.26-4.77.81-6.69 2.51-.77.67-1.12 1.67-1.12 1.67l.04 53.97v1.33s.46.62.53.7c1.56 1.69 3.38 3.03 5.71 3.51 3.84.79 6.55-.81 7.3-4.37.19-.89.3-1.81.3-2.72.02-16.07.05-32.13-.03-48.19zm60.43-81.39a4468.85 4468.85 0 0 0-191.65 0c-22.16.47-39.88 18.59-39.88 40.76v99.76c0 22.18 17.72 40.3 39.88 40.77a4468.85 4468.85 0 0 0 191.65 0c22.17-.47 39.89-18.59 39.89-40.77v-99.76c0-22.169-17.72-40.29-39.89-40.76zm-172.89 149.611h-18.42v-104.13h-19.07v-17.42h56.6v17.38h-19.11v104.17zm65.92-43.221v43.23h-16.31v-9.88c-.59.63-.92.97-1.23 1.32-3.51 3.96-7.49 7.26-12.57 9.01-2.48.85-5.03 1.14-7.64.69-3.56-.59-5.95-2.64-7.39-5.88-1.34-2.99-1.68-6.19-1.69-9.41-.04-11.9-.02-74.88-.02-75.49h16.27c.03.55.09 45.76.1 67.81 0 1.2.01 2.43.25 3.6.6 2.96 2.87 4.23 5.72 3.19 3.28-1.2 5.78-3.46 7.88-6.17.31-.39.31-1.09.31-1.65v-66.88l16.32-.04v46.55zm62.05 34.59c-2.18 6.56-6.98 9.9-13.88 9.83-5.61-.05-10.16-2.28-13.91-6.35-.42-.45-1.58-1.68-1.58-1.68v6.82h-16.34v-121.55h16.34v40.01s.92-1.84 1.76-2.79c2.53-2.83 5.61-5.02 9.41-5.98 6.27-1.57 13.5.37 16.94 7.7 2.03 4.33 2.6 8.95 2.6 13.65.03 16.99.03 33.98.01 50.97-.01 3.18-.34 6.321-1.35 9.37zm60.35-3.419c-2.83 8.29-8.68 12.89-17.26 14.15-5.32.78-10.59.67-15.58-1.59-6.83-3.08-10.7-8.65-12.36-15.74-.77-3.3-1.15-6.76-1.19-10.15-.13-13.31-.07-26.63-.04-39.94.01-6.96 1.67-13.38 6.44-18.71 5.44-6.09 12.4-8.36 20.35-7.85 2.39.15 4.83.54 7.1 1.29 7.73 2.54 11.86 8.33 13.48 16.01.62 2.96.85 6.03.9 9.06.13 7.1-.05 22.75-.05 22.75h-31.29v22.43c0 4.03 3.26 7.29 7.29 7.29 4.02 0 7.28-3.26 7.28-7.29v-11.53h16.81c0-.001.25 13.61-1.88 19.82zm-14.93-57.22c0-4.02-3.26-7.29-7.28-7.29-4.03 0-7.29 3.27-7.29 7.29v12.59h14.57v-12.59zm-62.07-4.01c-.84-2.09-2.64-3.13-4.9-3.35-2.65-.26-4.77.81-6.69 2.51-.77.67-1.12 1.67-1.12 1.67l.04 53.97v1.33s.46.62.53.7c1.56 1.69 3.38 3.03 5.71 3.51 3.84.79 6.55-.81 7.3-4.37.19-.89.3-1.81.3-2.72.02-16.07.05-32.13-.03-48.19-.01-1.701-.51-3.471-1.14-5.06zM303.887 94.99l-.005 90.244H287.16l.02-9.695c-1.849 1.821-3.427 3.522-5.161 5.05-3.074 2.708-6.556 4.727-10.629 5.524-6.253 1.223-11.579-.754-13.573-7.23-.664-2.157-1.065-4.482-1.082-6.734V94.99h16.596v68.821c0 .912.073 1.834.233 2.728.504 2.836 2.6 4.171 5.331 3.224 3.329-1.152 5.869-3.457 8.024-6.173.306-.388.251-1.112.251-1.681V94.99h16.717zm-138.309 15.682c-3.63-15.301-11.235-47.602-11.235-47.602h-19.029s14.62 48.487 21.158 70.111c.235.782.343 1.631.343 2.45l-.007 49.584h17.547l-.007-49.584c0-.819.108-1.668.343-2.45 6.538-21.624 21.158-70.111 21.158-70.111H176.82s-7.606 32.301-11.235 47.602h-.007zm53.174-17.941c-13.224 0-23.944 10.72-23.944 23.944v46.859c0 13.224 10.72 23.944 23.944 23.944 13.224 0 23.944-10.72 23.944-23.944v-46.859c.001-13.224-10.72-23.944-23.944-23.944zm6.91 71.749c0 3.81-3.1 6.909-6.909 6.909s-6.909-3.099-6.909-6.909v-48.752c0-3.81 3.1-6.909 6.909-6.909s6.909 3.1 6.909 6.909v48.752z" fill="#fff"/></svg>