<svg xmlns="http://www.w3.org/2000/svg" xmlns:xlink="http://www.w3.org/1999/xlink" version="1.1" x="0px" y="0px" viewBox="0 0 100 125" enable-background="new 0 0 100 100" xml:space="preserve"><g><path d="M76.754,4.951h0.02C76.965,4.278,76.979,4.213,76.754,4.951z"/><path d="M50.67,98.61c10.761-38.482,10.449-38.656,18.228-66.094l1.871,1.08c1.016,0.587,1.848,0.107,1.848-1.064V19.447   c2.064-7.23,3.682-12.816,4.156-14.496h8.428l14,12.97l-9.195,7.946l6.953,7.517L51.135,98.61   C50.911,98.978,50.599,98.894,50.67,98.61z"/></g><g><path d="M55.676,15.666c0.414,0,0.752,0.229,0.752,0.513v6.706c0,0.283-0.338,0.513-0.752,0.513h-11.32   c-0.416,0-0.753-0.229-0.753-0.513v-6.706c0-0.283,0.337-0.513,0.753-0.513H55.676"/><path d="M69.648,8.241L57.195,15.43c0.145,0.22,0.232,0.473,0.232,0.749v6.706c0,0.348-0.135,0.662-0.357,0.915l12.578,7.261   c0.857,0.495,1.561,0.09,1.561-0.899V9.141C71.209,8.151,70.506,7.747,69.648,8.241z"/><path d="M42.603,22.885v-6.706c0-0.275,0.088-0.528,0.231-0.748l-12.453-7.19c-0.857-0.494-1.56-0.09-1.56,0.9v21.021   c0,0.989,0.702,1.395,1.56,0.899l12.577-7.262C42.737,23.546,42.603,23.233,42.603,22.885z"/></g><g><path d="M48.865,98.61h0.465c-10.76-38.482-10.45-38.656-18.228-66.094l-1.871,1.08c-1.016,0.587-1.848,0.107-1.848-1.064V19.447   c-2.065-7.23-3.682-12.816-4.157-14.496h-8.427l-14,12.97l9.194,7.946l-6.953,7.517L48.865,98.61z"/><path d="M23.226,4.951h0.02C23.022,4.213,23.035,4.278,23.226,4.951z"/></g><circle cx="49.659" cy="34" r="3.399"/><circle cx="49.659" cy="54.21" r="3.399"/><circle cx="49.659" cy="74.423" r="3.399"/><text x="0" y="115" fill="#000000" font-size="5px" font-weight="bold" font-family="'Helvetica Neue', Helvetica, Arial-Unicode, Arial, Sans-serif">Created by Kenneth Von Alt</text><text x="0" y="120" fill="#000000" font-size="5px" font-weight="bold" font-family="'Helvetica Neue', Helvetica, Arial-Unicode, Arial, Sans-serif">from the Noun Project</text></svg>