<svg xmlns="http://www.w3.org/2000/svg" viewBox="0 0 100 125"><path d="M76.754 4.951h.02c.191-.673.205-.738-.02 0z"/><path d="M50.67 98.61c10.761-38.482 10.449-38.656 18.228-66.094l1.871 1.08c1.016.587 1.848.107 1.848-1.064V19.447c2.064-7.23 3.682-12.816 4.156-14.496h8.428l14 12.97-9.195 7.946 6.953 7.517L51.135 98.61c-.224.368-.536.284-.465 0zm5.006-82.944c.414 0 .752.229.752.513v6.706c0 .283-.338.513-.752.513h-11.32c-.416 0-.753-.229-.753-.513v-6.706c0-.283.337-.513.753-.513h11.32"/><path d="M69.648 8.241L57.195 15.43c.145.22.232.473.232.749v6.706c0 .348-.135.662-.357.915l12.578 7.261c.857.495 1.561.09 1.561-.899V9.141c0-.99-.703-1.394-1.561-.9zM42.603 22.885v-6.706c0-.275.088-.528.231-.748l-12.453-7.19c-.857-.494-1.56-.09-1.56.9v21.021c0 .989.702 1.395 1.56.899l12.577-7.262a1.378 1.378 0 0 1-.355-.914z"/><path d="M48.865 98.61h.465C38.57 60.128 38.88 59.954 31.102 32.516l-1.871 1.08c-1.016.587-1.848.107-1.848-1.064V19.447c-2.065-7.23-3.682-12.816-4.157-14.496h-8.427l-14 12.97 9.194 7.946-6.953 7.517L48.865 98.61z"/><path d="M23.226 4.951h.02c-.224-.738-.211-.673-.02 0z"/><circle cx="49.659" cy="34" r="3.399"/><circle cx="49.659" cy="54.21" r="3.399"/><circle cx="49.659" cy="74.423" r="3.399"/><text y="115" font-size="5" font-weight="bold" font-family="'Helvetica Neue', Helvetica, Arial-Unicode, Arial, Sans-serif">Created by Kenneth Von Alt</text><text y="120" font-size="5" font-weight="bold" font-family="'Helvetica Neue', Helvetica, Arial-Unicode, Arial, Sans-serif">from the Noun Project</text></svg>